<?xml version="1.0" encoding="UTF-8"?><svg id="a" xmlns="http://www.w3.org/2000/svg" viewBox="0 0 381.36 326.98"><defs><style>.b{stroke:#000;}.b,.c,.d,.e{fill:none;stroke-miterlimit:10;}.f{font-family:TimesNewRomanPSMT, 'Times New Roman';}.g{letter-spacing:-.02em;}.g,.h,.i,.j{font-size:18px;}.g,.k,.i,.j{font-family:TimesNewRomanPS-ItalicMT, 'Times New Roman';font-style:italic;}.h{fill:blue;}.c{stroke:red;}.d{stroke:blue;}.e{stroke:#f0f;stroke-linecap:square;}.j{fill:#f0f;}</style></defs><path class="c" d="M26.72,15.36S110.46,221.93,192.1,221.62c81.28-.31,162.53-206.26,162.53-206.26"/><line class="e" x1="192.1" y1="178.63" x2="261.6" y2="178.63"/><line class="e" x1="261.6" y1="264.61" x2="261.6" y2="178.63"/><path d="M343.09,265.11h-2.83v-1h2.83v1Zm-5.67,0h-2.83v-1h2.83v1Zm-5.67,0h-2.83v-1h2.83v1Zm-5.67,0h-2.83v-1h2.83v1Zm-5.67,0h-2.83v-1h2.83v1Zm-5.67,0h-2.83v-1h2.83v1Zm-5.67,0h-2.83v-1h2.83v1Zm-5.67,0h-2.83v-1h2.83v1Zm-5.67,0h-2.83v-1h2.83v1Zm-5.67,0h-2.83v-1h2.83v1Zm-5.67,0h-2.83v-1h2.83v1Zm-5.67,0h-2.83v-1h2.83v1Zm-5.67,0h-2.83v-1h2.83v1Zm-5.67,0h-2.83v-1h2.83v1Zm-5.67,0h-2.83v-1h2.83v1Zm-5.67,0h-2.83v-1h2.83v1Zm-5.67,0h-2.83v-1h2.83v1Zm-5.67,0h-2.83v-1h2.83v1Zm-5.67,0h-2.83v-1h2.83v1Zm-5.67,0h-2.83v-1h2.83v1Zm-5.67,0h-2.83v-1h2.83v1Zm-5.67,0h-2.83v-1h2.83v1Zm-5.67,0h-2.83v-1h2.83v1Zm-5.67,0h-2.83v-1h2.83v1Zm-5.67,0h-2.83v-1h2.83v1Zm-5.67,0h-2.83v-1h2.83v1Zm-5.67,0h-2.83v-1h2.83v1Zm-5.67,0h-2.83v-1h2.83v1Zm-5.67,0h-2.83v-1h2.83v1Zm-5.67,0h-2.83v-1h2.83v1Zm-5.67,0h-2.83v-1h2.83v1Zm-5.67,0h-2.83v-1h2.83v1Zm-5.67,0h-2.83v-1h2.83v1Zm-5.67,0h-2.83v-1h2.83v1Zm-5.67,0h-2.83v-1h2.83v1Zm-5.67,0h-2.83v-1h2.83v1Zm-5.67,0h-2.83v-1h2.83v1Zm-5.67,0h-2.83v-1h2.83v1Zm-5.67,0h-2.83v-1h2.83v1Zm-5.67,0h-2.83v-1h2.83v1Zm-5.67,0h-2.83v-1h2.83v1Zm-5.67,0h-2.83v-1h2.83v1Zm-5.67,0h-2.83v-1h2.83v1Zm-5.67,0h-2.83v-1h2.83v1Zm-5.67,0h-2.83v-1h2.83v1Zm-5.67,0h-2.83v-1h2.83v1Zm-5.67,0h-2.83v-1h2.83v1Zm-5.67,0h-2.83v-1h2.83v1Zm-5.67,0h-2.83v-1h2.83v1Zm-5.67,0h-2.83v-1h2.83v1Zm-5.67,0h-2.83v-1h2.83v1Zm-5.67,0h-2.83v-1h2.83v1Zm-5.67,0h-2.83v-1h2.83v1Zm-5.67,0h-2.83v-1h2.83v1Z"/><path d="M192.6,287.28h-1v-2.83h1v2.83Zm0-5.67h-1v-2.83h1v2.83Zm0-5.67h-1v-2.83h1v2.83Zm0-5.67h-1v-2.83h1v2.83Zm0-5.67h-1v-2.83h1v2.83Zm0-5.67h-1v-2.83h1v2.83Zm0-5.67h-1v-2.83h1v2.83Zm0-5.67h-1v-2.83h1v2.83Zm0-5.67h-1v-2.83h1v2.83Zm0-5.67h-1v-2.83h1v2.83Zm0-5.67h-1v-2.83h1v2.83Zm0-5.67h-1v-2.83h1v2.83Zm0-5.67h-1v-2.83h1v2.83Zm0-5.67h-1v-2.83h1v2.83Zm0-5.67h-1v-2.83h1v2.83Zm0-5.67h-1v-2.83h1v2.83Zm0-5.67h-1v-2.83h1v2.83Zm0-5.67h-1v-2.83h1v2.83Zm0-5.67h-1v-2.83h1v2.83Zm0-5.67h-1v-2.83h1v2.83Zm0-5.67h-1v-2.83h1v2.83Zm0-5.67h-1v-2.83h1v2.83Zm0-5.67h-1v-2.83h1v2.83Zm0-5.67h-1v-2.83h1v2.83Zm0-5.67h-1v-2.83h1v2.83Zm0-5.67h-1v-2.83h1v2.83Zm0-5.67h-1v-2.83h1v2.83Zm0-5.67h-1v-2.83h1v2.83Zm0-5.67h-1v-2.83h1v2.83Zm0-5.67h-1v-2.83h1v2.83Zm0-5.67h-1v-2.83h1v2.83Zm0-5.67h-1v-2.83h1v2.83Zm0-5.67h-1v-2.83h1v2.83Zm0-5.67h-1v-2.83h1v2.83Zm0-5.67h-1v-2.83h1v2.83Zm0-5.67h-1v-2.83h1v2.83Zm0-5.67h-1v-2.83h1v2.83Zm0-5.67h-1v-2.83h1v2.83Zm0-5.67h-1v-2.83h1v2.83Zm0-5.67h-1v-2.83h1v2.83Zm0-5.67h-1v-2.83h1v2.83Zm0-5.67h-1v-2.83h1v2.83Zm0-5.67h-1v-2.83h1v2.83Zm0-5.67h-1v-2.83h1v2.83Z"/><text class="i" transform="translate(196.74 48.62)"><tspan x="0" y="0">y</tspan></text><text class="i" transform="translate(335.21 257.85)"><tspan x="0" y="0">x</tspan></text><text class="i" transform="translate(195.8 174.93)"><tspan x="0" y="0">F</tspan></text><text class="g" transform="translate(196.74 238.61)"><tspan x="0" y="0">V</tspan></text><text class="g" transform="translate(72.14 93.76)"><tspan x="0" y="0">P</tspan></text><text class="j" transform="translate(265.3 223.67)"><tspan x="0" y="0">p</tspan></text><text class="j" transform="translate(230.59 172.08)"><tspan x="0" y="0">p</tspan></text><text class="h" transform="translate(123.79 126.98) rotate(36.34)"><tspan class="f" x="0" y="0">|</tspan><tspan class="k" x="3.6" y="0">PF</tspan><tspan class="f" x="25.59" y="0">|</tspan></text><text class="h" transform="translate(157.82 306.1)"><tspan class="f" x="0" y="0">|</tspan><tspan class="k" x="3.6" y="0">PF</tspan><tspan class="f" x="25.59" y="0">| = |</tspan><tspan class="k" x="51.95" y="0">Pl</tspan><tspan class="f" x="67.95" y="0">|</tspan></text><text class="h" transform="translate(39.79 184.93)"><tspan class="f" x="0" y="0">|</tspan><tspan class="k" x="3.6" y="0">Pl</tspan><tspan class="f" x="19.6" y="0">|</tspan></text><path class="b" d="M66.05,264.61v-13.72c3.64,0,7.13,1.45,9.7,4.02s4.02,6.07,4.02,9.7h-13.72Z"/><line class="d" x1="66.05" y1="96.6" x2="192.1" y2="178.63"/><line class="d" x1="66.05" y1="96.6" x2="66.05" y2="264.61"/><circle cx="192.1" cy="178.63" r="2.84"/><circle cx="66.05" cy="96.6" r="2.84"/><circle cx="192.1" cy="221.62" r="2.84"/><g><path d="M253.78,112.86h2.46v1.91h-2.45v4.86h-2.24v-4.84h-7.82c0-.59,0-1.14,0-1.69,0-.08,.07-.17,.13-.25,2.76-3.94,5.52-7.89,8.27-11.83,.11-.16,.23-.22,.42-.21,.39,.01,.78,0,1.22,0v12.04Zm-8.7-.03h6.43v-9.09c-2.17,3.06-4.28,6.06-6.43,9.09Z"/><path d="M261.11,108.57h-2.34c.06-.29,.1-.53,.17-.77,.02-.06,.14-.12,.21-.13,.2-.03,.4-.03,.61-.03,.83-.01,1.45-.38,1.86-1.09,.45-.8,.87-1.61,1.32-2.41,.71-1.27,1.63-2.36,2.89-3.12,.94-.56,1.94-.87,3.05-.61,.55,.13,.99,.44,1.29,.92,.27,.43,.25,.98-.04,1.35-.3,.38-.78,.52-1.23,.37-.49-.16-.71-.61-.52-1.09,.06-.15,.14-.29,.2-.43,.14-.31,.05-.53-.29-.59-.58-.11-1.12,.04-1.61,.36-.89,.6-1.46,1.47-1.84,2.43-.49,1.25-.87,2.53-1.3,3.8,0,.03,0,.06,0,.14h1.95c-.08,.3-.13,.54-.22,.78-.02,.06-.16,.12-.25,.12-.48,.01-.96,.02-1.44,0-.25-.01-.35,.07-.41,.32-.62,2.46-1.23,4.91-1.88,7.36-.55,2.06-1.25,4.07-2.35,5.91-.65,1.09-1.39,2.1-2.48,2.79-.88,.56-1.82,.9-2.87,.65-.7-.17-1.15-.64-1.19-1.21-.04-.44,.17-.76,.54-.98,.37-.22,.77-.26,1.15-.03,.43,.26,.47,.72,.14,1.12-.11,.13-.17,.29-.25,.44,.18,.06,.37,.18,.55,.17,1.07-.08,1.8-.7,2.35-1.56,.62-.97,.93-2.07,1.22-3.18,.99-3.82,1.97-7.64,2.96-11.47,.02-.09,.04-.18,.06-.31Z"/><path d="M202.13,92.73c-.03-.12-.07-.26-.12-.45,.54-.13,1.06-.27,1.58-.4,.71-.18,1.43-.34,2.14-.53,.2-.05,.3-.01,.41,.17,.46,.81,.64,1.69,.72,2.59,.24,2.61,.47,5.21,.71,7.82,0,.04,.01,.08,.04,.19,.24-.29,.45-.53,.64-.79,1.45-1.88,2.84-3.81,4.01-5.87,.17-.3,.32-.63,.41-.96,.11-.36,0-.49-.35-.63-.18-.07-.36-.13-.52-.23-.49-.3-.72-.9-.57-1.47,.12-.49,.52-.83,1.02-.87,.66-.05,1.28,.46,1.44,1.2,.2,.91-.03,1.75-.4,2.57-.68,1.5-1.67,2.81-2.63,4.14-1.98,2.77-4.17,5.39-6.47,7.89-.75,.81-1.51,1.63-2.52,2.12-.34,.16-.71,.28-1.08,.36-.45,.1-.82-.09-1.07-.46-.26-.38-.24-.79-.01-1.17,.28-.48,.68-.79,1.26-.79,.29,0,.49,.12,.62,.41,.32,.72,.33,.73,.99,.26,1.03-.72,1.82-1.7,2.69-2.57,.59-.59,.72-1.2,.63-2.02-.28-2.47-.45-4.96-.68-7.44-.07-.72-.2-1.43-.34-2.14-.11-.59-.54-.88-1.11-.93-.45-.04-.91,0-1.42,0Z"/><path d="M260.66,91.42v.47h-6.9v-.46c.36-.03,.72-.05,1.08-.09,.82-.09,1.17-.45,1.22-1.27,.03-.42,.05-.85,.05-1.28,0-3.61,0-7.22,0-10.83,0-.58-.04-1.17-.12-1.75-.1-.73-.58-1.05-1.3-.89-.35,.08-.69,.22-1.07,.34-.05-.1-.12-.23-.19-.37,.09-.05,.15-.1,.23-.13,1.33-.65,2.66-1.3,3.99-1.94,.2-.1,.43-.12,.71-.19,0,.2,0,.33,0,.45,0,5.22,0,10.43,0,15.65,0,.38,.03,.77,.06,1.15,.05,.54,.35,.87,.88,1,.22,.05,.44,.08,.66,.1,.22,.02,.44,.03,.7,.04Z"/><path d="M284.95,100.44c.16,.08,.3,.15,.46,.23-.43,.82-.94,1.54-1.6,2.15-.36,.33-.74,.65-1.15,.9-.67,.42-1.38,.26-1.75-.43-.28-.52-.44-1.1-.59-1.67-.27-1-.49-2-.74-3.06-.1,.16-.18,.29-.27,.42-.81,1.2-1.6,2.41-2.44,3.58-.44,.61-1.02,1.08-1.77,1.31-.48,.15-.94,.1-1.37-.2-.48-.35-.62-1.02-.3-1.5,.32-.47,.91-.59,1.44-.27,.15,.09,.29,.21,.44,.32,.41,.32,.57,.33,.93-.04,.34-.34,.69-.71,.95-1.11,.7-1.08,1.37-2.18,2.04-3.28,.08-.13,.1-.35,.06-.5-.24-1-.5-2-.77-3-.07-.25-.18-.5-.29-.74-.34-.73-.94-1.08-1.72-1.11-.35-.01-.7,0-1.04,0q-.08-.48,.35-.56c.97-.17,1.95-.33,2.92-.52,.24-.04,.39,.02,.55,.2,.68,.76,1.02,1.68,1.28,2.65,.09,.34,.19,.67,.3,1.08,.33-.49,.63-.92,.91-1.36,.61-.94,1.37-1.73,2.33-2.32,.42-.25,.87-.34,1.35-.26,.74,.12,1.14,.81,.89,1.51-.12,.35-.63,.63-1.08,.57-.33-.05-.66-.14-.99-.25-.41-.13-.75-.04-1.07,.22-.78,.62-1.27,1.48-1.82,2.28-.25,.36-.29,.7-.18,1.13,.4,1.54,.76,3.1,1.14,4.65,.03,.12,.07,.24,.12,.36,.24,.64,.6,.77,1.1,.31,.45-.41,.81-.92,1.2-1.4,.07-.08,.11-.18,.17-.28Z"/><path d="M243.68,98.34v-1.62h26.72v1.62h-26.72Z"/><path d="M287.19,86.26c.14-1.55,1.07-2.71,2.41-3.01,1.69-.38,3.39,.59,3.78,2.17,.17,.7,.07,1.38-.19,2.03-.43,1.09-1.1,2.01-1.88,2.87-.82,.9-1.65,1.78-2.48,2.66-.06,.07-.12,.14-.22,.26,.22,0,.37,0,.53,0,1.11-.01,2.21-.02,3.32-.05,.52-.01,.93-.25,1.25-.67,.08-.1,.23-.15,.34-.22,.02,.03,.04,.06,.07,.08-.23,.64-.46,1.28-.71,1.91-.03,.07-.15,.16-.22,.16-2.1,0-4.19,0-6.29,0,0,0-.02,0-.11-.05,.09-.15,.15-.33,.27-.44,1.22-1.14,2.43-2.29,3.47-3.61,.75-.94,1.37-1.95,1.53-3.18,.17-1.28-.56-2.43-1.72-2.7-1.11-.26-2.28,.39-2.77,1.55-.08,.18-.14,.34-.38,.23Z"/><path d="M234.67,92.69h-14.64v-1.08h14.64v1.08Z"/><path d="M220.02,97.13v-1.07h14.66v1.07h-14.66Z"/></g><g><path d="M276.36,184.13s0-.02,0-.02c-.06-.47-.06-.47,.4-.54,1.32-.19,2.63-.39,3.95-.59,.07,0,.14-.01,.23-.02-.3,1-.59,1.98-.89,2.96,.01,0,.02,.01,.03,.02,.15-.16,.29-.33,.44-.49,.64-.68,1.29-1.34,2.1-1.82,.77-.46,1.59-.72,2.49-.68,1.04,.05,1.76,.61,2.27,1.47,.43,.73,.5,1.53,.45,2.35-.07,1.22-.43,2.37-1,3.45-.74,1.39-1.65,2.65-2.88,3.66-1.34,1.1-2.88,1.63-4.63,1.49-.57-.05-1.1-.25-1.6-.52-.07-.04-.13-.07-.21-.12-.13,.44-.25,.86-.37,1.29-.29,1.06-.6,2.11-.86,3.18-.17,.67,.16,1.1,.85,1.18,.37,.04,.74,.06,1.13,.09-.03,.14-.06,.27-.1,.4-.01,.03-.07,.06-.11,.08-.03,.01-.06,0-.09,0-1.98,0-3.96,0-5.94,0-.06,0-.11,0-.19,0,.04-.15,.06-.28,.11-.41,.02-.05,.11-.08,.18-.09,.33-.06,.66-.09,.98-.16,.38-.08,.68-.3,.82-.65,.23-.56,.46-1.13,.63-1.71,1.15-3.95,2.29-7.9,3.42-11.85,.11-.37,.19-.74,.26-1.12,.09-.52-.21-.88-.74-.88-.38,0-.76,.04-1.16,.06Zm9.19,2.32c0-.41-.03-.82-.17-1.21-.31-.86-1.05-1.26-1.94-1.08-.69,.14-1.26,.5-1.76,.96-1.22,1.14-2.05,2.53-2.56,4.11-.45,1.42-.85,2.86-1.26,4.3-.02,.07,.02,.19,.07,.24,.9,.97,2.43,1.15,3.61,.45,.83-.49,1.48-1.17,2.01-1.95,1.19-1.76,1.9-3.7,2.01-5.83Z"/><path d="M315.05,181.66c.26-1.75,.86-3.29,2.37-4.32,.86-.58,1.82-.81,2.84-.81,1.15,0,2.23,.29,3.16,.99,1.36,1.03,2.07,2.38,1.98,4.11-.05,.97-.35,1.87-.78,2.73-.76,1.52-1.76,2.87-2.91,4.11-1.39,1.51-2.81,2.99-4.22,4.48-.02,.02-.03,.04-.07,.07,.06,0,.11,.02,.15,.02,1.85,0,3.69,0,5.54-.01,.57,0,1.14-.04,1.68-.29,.43-.2,.81-.48,1.04-.89,.17-.29,.38-.31,.68-.26-.1,.28-.2,.56-.31,.84-.3,.83-.61,1.66-.91,2.5-.04,.1-.08,.14-.2,.14-3.48,0-6.96,0-10.44,0-.04,0-.07,0-.12,0-.04-.27-.03-.49,.21-.7,1.72-1.56,3.39-3.18,4.92-4.93,1.02-1.17,1.97-2.4,2.65-3.81,.52-1.08,.84-2.2,.79-3.41-.07-1.56-1.02-2.94-2.45-3.44-1.03-.36-2.04-.23-3.01,.26-1,.51-1.62,1.35-2,2.37-.07,.2-.17,.28-.37,.25-.07-.01-.13,0-.22,0Z"/><path d="M331.5,184.16h-2.33c.07-.31,.13-.59,.19-.87,.29-.02,.56-.04,.83-.04,.78-.01,1.37-.36,1.76-1.02,.38-.65,.72-1.32,1.08-1.98,.57-1.07,1.24-2.06,2.18-2.86,.78-.67,1.65-1.18,2.68-1.32,.86-.12,1.67,0,2.31,.68,.48,.51,.54,1.17,.14,1.65-.35,.43-1.06,.51-1.48,.16-.27-.22-.36-.53-.24-.86,.05-.13,.12-.26,.18-.39,.21-.42,.08-.67-.39-.7-.5-.04-.96,.07-1.38,.34-.64,.41-1.08,1-1.47,1.64-.53,.87-.81,1.83-1.13,2.79-.18,.53-.34,1.07-.51,1.6-.03,.09-.05,.19-.09,.31h1.96c-.08,.29-.15,.55-.23,.81-.01,.04-.11,.07-.16,.07-.53,0-1.06,.01-1.58,0-.17,0-.23,.04-.28,.21-.63,2.48-1.24,4.96-1.9,7.43-.45,1.69-1.01,3.34-1.82,4.9-.55,1.06-1.17,2.08-2.05,2.91-.77,.73-1.65,1.25-2.72,1.38-.66,.08-1.28-.03-1.79-.5-.34-.31-.46-.69-.32-1.13,.14-.44,.48-.66,.92-.74,.32-.06,.61,0,.85,.24,.27,.27,.29,.64,.04,.93-.06,.07-.13,.13-.2,.2-.18,.19-.13,.4,.13,.44,.19,.03,.4,.03,.6-.01,.9-.19,1.55-.75,2.03-1.5,.51-.79,.82-1.68,1.06-2.59,1.03-3.96,2.06-7.93,3.08-11.89,.02-.08,.04-.17,.07-.28Z"/><path d="M293.97,184.32v-1.07h14.43v1.07h-14.43Z"/><path d="M308.4,187.62v1.07h-14.44v-1.07h14.44Z"/></g></svg>