<?xml version="1.0" encoding="UTF-8"?><svg id="a" xmlns="http://www.w3.org/2000/svg" viewBox="0 0 1272.97 1090.86"><defs><style>.b{font-family:TimesNewRomanPSMT, 'Times New Roman';font-size:24px;}.c,.d{fill:none;stroke:#000;stroke-linecap:round;stroke-miterlimit:10;}.d{stroke-width:1px;}</style></defs><g><g><line class="c" x1="80.75" y1="477.02" x2="80.75" y2="491.43"/><line class="c" x1="234.21" y1="396.48" x2="541.15" y2="543.11"/><line class="c" x1="80.75" y1="477.02" x2="387.43" y2="623.53"/><line class="c" x1="541.15" y1="543.11" x2="387.68" y2="623.4"/><line class="c" x1="234.21" y1="396.48" x2="81.27" y2="476.79"/><line class="c" x1="541.15" y1="543.11" x2="541.15" y2="557.51"/><line class="c" x1="80.75" y1="491.43" x2="387.68" y2="638.05"/><line class="c" x1="541.15" y1="557.51" x2="387.94" y2="637.66"/><line class="c" x1="387.68" y1="623.65" x2="387.68" y2="637.15"/></g><g><line class="d" x1="65.33" y1="385.86" x2="164.05" y2="433.01"/><line class="c" x1="29.88" y1="403.88" x2="128.9" y2="451.19"/><line class="c" x1="65.43" y1="385.9" x2="29.88" y2="403.88"/><line class="c" x1="29.88" y1="410.3" x2="29.88" y2="403.88"/><line class="c" x1="29.88" y1="410.3" x2="122.6" y2="454.47"/></g><g><line class="d" x1="486.19" y1="586.86" x2="584.91" y2="634.01"/><line class="c" x1="450.59" y1="604.88" x2="549.27" y2="652.03"/><line class="c" x1="584.91" y1="634.01" x2="549.27" y2="652.03"/><line class="c" x1="584.91" y1="639.98" x2="549.72" y2="657.77"/><line class="c" x1="444.72" y1="607.96" x2="549.27" y2="657.77"/><line class="c" x1="549.27" y1="652.33" x2="549.27" y2="657.77"/><line class="c" x1="584.91" y1="634.45" x2="584.91" y2="639.98"/></g></g><g><g><line class="c" x1="68.04" y1="818.29" x2="68.04" y2="832.69"/><line class="c" x1="221.5" y1="737.75" x2="528.44" y2="884.37"/><line class="c" x1="68.04" y1="818.29" x2="374.72" y2="964.8"/><line class="c" x1="528.44" y1="884.37" x2="374.97" y2="964.66"/><line class="c" x1="221.5" y1="737.75" x2="68.56" y2="818.06"/><line class="c" x1="528.44" y1="884.37" x2="528.44" y2="898.77"/><line class="c" x1="68.04" y1="832.69" x2="374.97" y2="979.32"/><line class="c" x1="528.44" y1="898.77" x2="375.23" y2="978.93"/><line class="c" x1="374.97" y1="964.91" x2="374.97" y2="978.41"/></g><g><line class="d" x1="37.88" y1="730.33" x2="141.36" y2="779.81"/><line class="c" x1="20.15" y1="739.19" x2="124.05" y2="788.76"/><line class="c" x1="37.74" y1="730.29" x2="20.15" y2="739.19"/><line class="c" x1="20.15" y1="745.86" x2="20.15" y2="739.19"/><line class="c" x1="20.33" y1="745.86" x2="117.33" y2="792.08"/></g><g><line class="d" x1="464.01" y1="933.9" x2="562.74" y2="981.06"/><line class="c" x1="446.47" y1="942.81" x2="545.15" y2="989.95"/><line class="c" x1="562.74" y1="981.06" x2="545.15" y2="989.95"/><line class="c" x1="562.74" y1="987.03" x2="545.15" y2="995.92"/><line class="c" x1="440.59" y1="946.11" x2="545.15" y2="995.92"/><line class="c" x1="545.15" y1="989.95" x2="545.15" y2="995.92"/><line class="c" x1="562.74" y1="981.5" x2="562.74" y2="987.03"/></g></g><g><g><line class="c" x1="678.91" y1="829.79" x2="678.91" y2="844.19"/><line class="c" x1="832.38" y1="749.24" x2="1139.32" y2="895.87"/><line class="c" x1="678.91" y1="829.79" x2="985.6" y2="976.29"/><line class="c" x1="1139.32" y1="895.87" x2="985.85" y2="976.16"/><line class="c" x1="832.38" y1="749.24" x2="679.44" y2="829.55"/><line class="c" x1="1139.32" y1="895.87" x2="1139.32" y2="910.27"/><line class="c" x1="678.91" y1="844.19" x2="985.85" y2="990.81"/><line class="c" x1="1139.32" y1="910.27" x2="986.11" y2="990.42"/><line class="c" x1="985.85" y1="976.41" x2="985.85" y2="989.91"/></g><g><line class="d" x1="587.68" y1="776.74" x2="687.96" y2="824.68"/><line class="c" x1="569.96" y1="785.53" x2="678.56" y2="837.41"/><line class="c" x1="587.56" y1="776.63" x2="569.96" y2="785.53"/><line class="c" x1="569.96" y1="792.18" x2="569.96" y2="785.53"/><line class="c" x1="569.96" y1="792.18" x2="678.67" y2="843.98"/></g><g><line class="d" x1="729.18" y1="699.87" x2="832.66" y2="749.35"/><line class="c" x1="711.45" y1="708.73" x2="815.34" y2="758.31"/><line class="c" x1="729.04" y1="699.83" x2="711.45" y2="708.73"/><line class="c" x1="711.45" y1="715.41" x2="711.45" y2="708.73"/><line class="c" x1="711.63" y1="715.41" x2="808.62" y2="761.62"/></g><g><line class="d" x1="1139.38" y1="910.63" x2="1238.1" y2="957.78"/><line class="c" x1="1121.83" y1="919.53" x2="1220.51" y2="966.68"/><line class="c" x1="1238.1" y1="957.78" x2="1220.51" y2="966.68"/><line class="c" x1="1238.1" y1="963.75" x2="1220.51" y2="972.65"/><line class="c" x1="1115.96" y1="922.83" x2="1220.51" y2="972.65"/><line class="c" x1="1220.51" y1="966.68" x2="1220.51" y2="972.65"/><line class="c" x1="1238.1" y1="958.23" x2="1238.1" y2="963.75"/></g><g><line class="d" x1="1009.76" y1="978.78" x2="1108.49" y2="1025.93"/><line class="c" x1="992.22" y1="987.68" x2="1090.9" y2="1034.83"/><line class="c" x1="1108.49" y1="1025.93" x2="1090.9" y2="1034.83"/><line class="c" x1="1108.49" y1="1031.9" x2="1090.9" y2="1040.8"/><line class="c" x1="986.35" y1="990.98" x2="1090.9" y2="1040.8"/><line class="c" x1="1090.9" y1="1034.83" x2="1090.9" y2="1040.8"/><line class="c" x1="1108.49" y1="1026.37" x2="1108.49" y2="1031.9"/></g></g><g><g><line class="c" x1="692.77" y1="475.5" x2="692.77" y2="489.9"/><line class="c" x1="846.24" y1="394.96" x2="1153.17" y2="541.58"/><line class="c" x1="692.77" y1="475.5" x2="999.46" y2="622.01"/><line class="c" x1="1153.17" y1="541.58" x2="999.71" y2="621.87"/><line class="c" x1="846.24" y1="394.96" x2="693.3" y2="475.27"/><line class="c" x1="1153.17" y1="541.58" x2="1153.17" y2="555.98"/><line class="c" x1="692.77" y1="489.9" x2="999.71" y2="636.53"/><line class="c" x1="1153.17" y1="555.98" x2="999.96" y2="636.14"/><line class="c" x1="999.71" y1="622.12" x2="999.71" y2="635.62"/></g><g><line class="d" x1="747.21" y1="347.63" x2="845.94" y2="394.78"/><line class="c" x1="711.77" y1="365.65" x2="810.78" y2="412.96"/><line class="c" x1="747.32" y1="347.67" x2="711.77" y2="365.65"/><line class="c" x1="711.77" y1="372.07" x2="711.77" y2="365.65"/><line class="c" x1="711.77" y1="372.07" x2="804.49" y2="416.25"/></g><g><line class="d" x1="620.36" y1="414.09" x2="719.08" y2="461.24"/><line class="c" x1="584.91" y1="432.1" x2="692.33" y2="483.43"/><line class="c" x1="620.46" y1="414.13" x2="584.91" y2="432.1"/><line class="c" x1="584.91" y1="438.52" x2="584.91" y2="432.1"/><line class="c" x1="584.91" y1="438.52" x2="692.15" y2="489.62"/></g><g><line class="d" x1="1041.17" y1="615.34" x2="1139.9" y2="662.5"/><line class="c" x1="1005.58" y1="633.37" x2="1104.26" y2="680.52"/><line class="c" x1="1139.9" y1="662.5" x2="1104.26" y2="680.52"/><line class="c" x1="1139.9" y1="668.47" x2="1104.71" y2="686.26"/><line class="c" x1="999.71" y1="636.44" x2="1104.26" y2="686.26"/><line class="c" x1="1104.26" y1="680.81" x2="1104.26" y2="686.26"/><line class="c" x1="1139.9" y1="662.94" x2="1139.9" y2="668.47"/></g><g><line class="d" x1="1154.09" y1="555.98" x2="1252.82" y2="603.14"/><line class="c" x1="1118.5" y1="574.01" x2="1217.18" y2="621.16"/><line class="c" x1="1252.82" y1="603.14" x2="1217.18" y2="621.16"/><line class="c" x1="1252.82" y1="609.11" x2="1217.63" y2="626.9"/><line class="c" x1="1112.63" y1="577.08" x2="1217.18" y2="626.9"/><line class="c" x1="1217.18" y1="621.45" x2="1217.18" y2="626.9"/><line class="c" x1="1252.82" y1="603.58" x2="1252.82" y2="609.11"/></g></g><g><g><line class="c" x1="68.83" y1="111.11" x2="68.83" y2="125.51"/><line class="c" x1="222.29" y1="30.57" x2="529.23" y2="177.19"/><line class="c" x1="68.83" y1="111.11" x2="375.51" y2="257.62"/><line class="c" x1="529.23" y1="177.19" x2="375.76" y2="257.48"/><line class="c" x1="222.29" y1="30.57" x2="69.35" y2="110.88"/><line class="c" x1="529.23" y1="177.19" x2="529.23" y2="191.6"/><line class="c" x1="68.83" y1="125.51" x2="375.76" y2="272.14"/><line class="c" x1="529.23" y1="191.6" x2="376.02" y2="271.75"/><line class="c" x1="375.76" y1="257.74" x2="375.76" y2="271.23"/></g><text class="b" transform="translate(455.27 257.93) rotate(-27.62)"><tspan x="0" y="0">60</tspan></text><text class="b" transform="translate(274.7 145.29)"><tspan x="0" y="0">7 kg</tspan></text><text class="b" transform="translate(357.54 86.5) rotate(25.53)"><tspan x="0" y="0">120</tspan></text></g><g><g><line class="c" x1="775.88" y1="45.43" x2="775.88" y2="51.63"/><line class="d" x1="812.39" y1="27.52" x2="1191" y2="209.25"/><line class="c" x1="775.88" y1="45.43" x2="1155.36" y2="226.73"/><line class="c" x1="1191" y1="209.25" x2="1155.36" y2="226.73"/><line class="c" x1="812.34" y1="27.54" x2="775.81" y2="45.46"/><line class="c" x1="1191" y1="214.65" x2="1155.71" y2="232.47"/><line class="c" x1="1191" y1="209.25" x2="1191" y2="214.13"/><line class="c" x1="775.8" y1="51.63" x2="1155.36" y2="232.48"/><line class="c" x1="1155.36" y1="227.03" x2="1155.36" y2="232.48"/></g><text class="b" transform="translate(1173.36 247.44) rotate(-26.13)"><tspan x="0" y="0">10</tspan></text><text class="b" transform="translate(990.66 105.23) rotate(25.64)"><tspan x="0" y="0">120</tspan></text></g><g><path d="M863.54,122.07l-.16,.34-4.62-2.22,.16-.33c.26,.09,.5,.19,.76,.25,.54,.13,.96-.05,1.21-.55,.87-1.8,1.73-3.6,2.59-5.4,.05-.11,.08-.22,.12-.33,.5-1.46-.49-2.14-1.47-2.33-.81-.16-1.58,.07-2.34,.31-.07,.02-.14,.11-.17,.18-.86,1.81-1.7,3.63-2.57,5.44-.44,.91-.12,1.34,.64,1.78,.08,.05,.17,.08,.28,.14l-.17,.36-4.72-2.27,.16-.34c.24,.08,.47,.18,.7,.25,.55,.16,1.01-.01,1.26-.53,.88-1.8,1.74-3.61,2.6-5.42,.06-.13,.1-.28,.13-.42,.28-1.1-.24-1.98-1.35-2.22-.85-.18-1.68-.04-2.48,.28-.08,.03-.14,.13-.18,.21-.84,1.74-1.67,3.47-2.5,5.22-.1,.2-.17,.42-.24,.63-.14,.43,0,.85,.38,1.11,.22,.15,.45,.28,.68,.42l-.16,.33-4.64-2.23,.16-.33c.19,.07,.39,.15,.59,.21,.51,.14,.9,0,1.19-.45,.15-.23,.29-.47,.41-.72,.76-1.58,1.52-3.16,2.27-4.74,.13-.28,.25-.58,.35-.87,.24-.69,.01-1.07-.71-1.21-.11-.02-.21-.04-.36-.06,0-.13,.01-.26,.02-.41,.08,0,.15-.02,.21-.01,1,.06,2,.12,3,.2,.2,.02,.4,.12,.63,.19l-.97,2.02c.53-.18,.99-.34,1.45-.49,.85-.28,1.72-.36,2.57-.02,1.31,.52,1.9,1.59,1.68,2.99-.01,.07-.01,.14-.02,.19,.62-.2,1.22-.44,1.85-.59,1.13-.27,2.2-.09,3.08,.71,.85,.78,.92,1.79,.64,2.83-.14,.5-.36,.98-.58,1.45-.67,1.43-1.35,2.84-2.03,4.26-.09,.19-.17,.38-.23,.57-.19,.63-.07,.97,.46,1.34,.13,.09,.27,.16,.43,.26Z"/><path d="M818.2,91.95c-.86,1.66-1.86,3.2-3.37,4.34-1.06,.8-2.22,1.25-3.56,1.14-1.54-.12-2.53-.99-3.05-2.4-.54-1.49-.51-3.02-.14-4.53,.54-2.23,1.55-4.22,3.12-5.9,.98-1.04,2.12-1.84,3.55-2.14,1.87-.39,3.49,.52,4.15,2.31,.63,1.7,.55,3.41,.04,5.12-.21,.69-.49,1.37-.74,2.05Zm-2-1.09c.61-1.22,1.12-2.47,1.42-3.8,.18-.8,.31-1.61,.13-2.42-.24-1.09-1.28-1.66-2.33-1.3-.86,.29-1.48,.89-2,1.59-1.53,2.06-2.75,4.28-3.54,6.73-.34,1.04-.59,2.1-.51,3.21,.05,.67,.29,1.25,.92,1.58,.74,.38,1.47,.24,2.12-.19,.43-.29,.83-.67,1.16-1.07,1.09-1.31,1.87-2.81,2.62-4.33Z"/><path d="M774.85,79.53l-.15,.32-4.37-2.1,.17-.34s.07,0,.1,0c.98,.37,1.77-.02,2.49-.63,1.68-1.44,3.35-2.89,5.01-4.35,2.02-1.76,4.02-3.52,6.03-5.29,.12-.11,.22-.22,.43-.12,.2,.1,.16,.25,.15,.4-.24,4.63-.47,9.27-.7,13.9-.02,.44,0,.88,.03,1.32,.05,.73,.4,1.28,1.02,1.67,.07,.05,.14,.1,.23,.17l-.17,.35-5.46-2.62,.16-.34c.25,.07,.51,.16,.78,.22,.6,.12,.99-.1,1.13-.69,.11-.48,.15-.97,.19-1.46,.05-.69,.07-1.37,.11-2.06,.01-.18-.03-.28-.21-.36-1.66-.79-3.32-1.59-4.97-2.39-.16-.08-.26-.06-.39,.05-.71,.64-1.43,1.26-2.14,1.9-.18,.16-.34,.36-.48,.55-.29,.39-.27,.8,.09,1.14,.28,.27,.61,.49,.94,.75Zm7.59-9.56c-1.74,1.51-3.42,2.98-5.13,4.47l4.79,2.3c.11-2.25,.22-4.47,.34-6.77Z"/><path d="M834.73,106.75s.07,.06,.09,.07c1.58,.74,3.15,1.49,4.73,2.21,.71,.33,1.43,.28,2.12-.11,.13-.07,.32-.02,.49-.02l.03,.11c-.09,.09-.17,.18-.26,.26-.6,.59-1.21,1.18-1.81,1.78-.11,.11-.2,.14-.36,.06-2.63-1.27-5.27-2.53-7.9-3.8-.03-.02-.07-.04-.11-.06,.03-.25,.16-.39,.41-.47,2-.6,3.97-1.26,5.88-2.1,1.43-.63,2.79-1.36,3.89-2.5,.63-.65,1.11-1.38,1.3-2.27,.25-1.22-.04-2.31-1.03-3.1-1.01-.81-2.17-.94-3.36-.44-.43,.18-.8,.48-1.18,.76-.28,.21-.27,.23-.56,0,1.11-1.83,2.93-2.8,4.84-2.36,2.05,.47,3.54,2.2,3.58,4.22,.02,1.33-.61,2.38-1.54,3.26-1.15,1.1-2.55,1.83-4,2.45-.87,.37-1.75,.71-2.62,1.06-.87,.34-1.74,.66-2.65,1.01Z"/><path d="M828.87,105.44l-.16,.34-5.23-2.51,.16-.34c.26,.1,.52,.2,.79,.29,.72,.26,1.14,.13,1.48-.56,1-2.02,1.98-4.04,2.96-6.07,.62-1.28,1.21-2.58,1.81-3.88,.09-.2,.16-.42,.21-.64,.09-.45-.08-.79-.51-.93-.35-.11-.72-.15-1.11-.22,0-.09,0-.2,0-.34,.48,0,.94,0,1.4-.01,.85,0,1.71-.02,2.56-.01,.18,0,.35,.07,.59,.11-.08,.17-.14,.29-.19,.4-1.83,3.81-3.66,7.62-5.49,11.44-.2,.42-.38,.84-.54,1.27-.15,.43-.04,.77,.32,1.04,.3,.22,.62,.41,.96,.62Z"/><path d="M869.74,110.6c.79-1.26,2.26-1.62,3.59-.89,.48,.26,.92,.58,1.2,1.05,.7,1.18,.46,2.23-.67,3.02-1.02,.71-2.19,1.06-3.36,1.4-.44,.13-.88,.24-1.4,.38,.74,.35,1.4,.68,2.07,.99,.26,.12,.52,.25,.8,.3,.23,.05,.51,.06,.71-.03,.28-.12,.48-.07,.72,.12-.43,.39-.85,.78-1.28,1.17-.04,.04-.15,.04-.21,.01-1.64-.78-3.28-1.57-4.92-2.35,.01-.25,.14-.33,.35-.38,1.42-.32,2.84-.64,4.16-1.29,.48-.24,.96-.55,1.34-.93,.72-.73,.75-1.68,.16-2.33-.63-.71-1.77-.84-2.54-.24-.28,.22-.47,.21-.72,0Z"/><path d="M793.84,78.89l.39-.81c3.69,1.77,7.37,3.54,11.07,5.31l-.39,.81-11.07-5.31Z"/><path d="M803.69,86.76l-.39,.8-11.07-5.31,.39-.8c3.69,1.77,7.36,3.53,11.07,5.31Z"/><path d="M819.07,98.73c.64,.31,.9,1.06,.58,1.7-.31,.62-1.06,.87-1.68,.57-.63-.31-.89-1.08-.58-1.7,.31-.62,1.05-.87,1.68-.56Z"/></g><g><g><line class="c" x1="600.78" y1="107.67" x2="600.78" y2="113.58"/><line class="d" x1="619.39" y1="98.54" x2="997.9" y2="280.11"/><line class="c" x1="600.78" y1="107.67" x2="980.26" y2="288.98"/><line class="c" x1="997.9" y1="280.11" x2="980.08" y2="288.85"/><line class="c" x1="619.39" y1="98.54" x2="600.78" y2="107.67"/><line class="c" x1="997.9" y1="285.52" x2="980.26" y2="294.42"/><line class="c" x1="997.9" y1="280.11" x2="997.9" y2="284.99"/><line class="c" x1="600.7" y1="113.58" x2="980.26" y2="294.43"/><line class="c" x1="980.26" y1="288.98" x2="980.26" y2="294.43"/></g><text class="b" transform="translate(997.97 311.32) rotate(-26.78)"><tspan x="0" y="0">5</tspan></text><text class="b" transform="translate(801.8 176.1) rotate(25.63)"><tspan x="0" y="0">120</tspan></text></g><g><path d="M682.99,185.02l-.16,.33-4.63-2.2,.16-.33c.19,.07,.37,.15,.57,.2,.53,.15,.94,.01,1.21-.45,.31-.53,.58-1.09,.85-1.64,.6-1.24,1.19-2.49,1.78-3.74,.14-.3,.26-.61,.37-.93,.24-.67,.01-1.05-.69-1.19-.11-.02-.23-.04-.38-.06,0-.14,.01-.27,.02-.43,.38,.02,.75,.03,1.12,.06,.69,.04,1.39,.08,2.08,.14,.2,.02,.39,.11,.62,.18l-.97,2.03c.54-.18,.99-.35,1.45-.5,.98-.32,1.96-.37,2.91,.13,1.01,.54,1.51,1.54,1.35,2.67-.02,.11-.03,.23-.05,.37,.6-.21,1.17-.46,1.77-.61,1.16-.3,2.25-.14,3.16,.68,.85,.77,.91,1.78,.64,2.82-.12,.44-.3,.87-.5,1.29-.68,1.47-1.38,2.92-2.07,4.38-.09,.19-.18,.39-.24,.6-.19,.62-.07,.96,.47,1.33,.13,.09,.27,.16,.42,.25l-.16,.34-4.6-2.19,.16-.33c.26,.09,.5,.19,.76,.25,.54,.13,.96-.06,1.2-.55,.86-1.79,1.71-3.59,2.57-5.38,.05-.11,.08-.22,.12-.33,.48-1.4-.43-2.1-1.44-2.31-.82-.16-1.59,.07-2.36,.31-.07,.02-.14,.11-.17,.19-.85,1.81-1.69,3.62-2.55,5.43-.43,.89-.13,1.32,.62,1.76,.09,.05,.19,.09,.31,.15l-.17,.36-4.71-2.24,.16-.33c.25,.09,.49,.18,.73,.25,.52,.14,.98-.04,1.21-.52,.87-1.81,1.73-3.62,2.59-5.44,.06-.13,.1-.28,.13-.42,.27-1.08-.23-1.95-1.32-2.2-.86-.19-1.69-.04-2.5,.28-.08,.03-.14,.13-.18,.21-.83,1.73-1.65,3.47-2.47,5.2-.09,.19-.16,.4-.23,.6-.14,.45,0,.86,.38,1.13,.21,.15,.45,.27,.68,.41Z"/><path d="M649.14,160.17c-.9,1.85-1.8,3.28-3.13,4.4-1.02,.85-2.15,1.42-3.51,1.44-1.59,.02-2.9-.89-3.42-2.4-.53-1.56-.51-3.14-.09-4.71,.6-2.27,1.65-4.31,3.33-5.98,.94-.93,2.03-1.62,3.36-1.86,1.81-.33,3.36,.57,4.01,2.29,.64,1.69,.57,3.4,.07,5.1-.2,.69-.48,1.36-.61,1.73Zm-2.12-.74c.63-1.28,1.16-2.59,1.45-3.99,.16-.77,.26-1.55,.05-2.33-.26-.98-1.27-1.52-2.23-1.2-.88,.29-1.52,.89-2.04,1.61-1.53,2.07-2.74,4.31-3.53,6.76-.33,1.02-.56,2.06-.48,3.14,.05,.69,.3,1.29,.97,1.6,.72,.35,1.44,.21,2.06-.21,.42-.28,.81-.65,1.14-1.05,1.09-1.31,1.87-2.82,2.62-4.34Z"/><path d="M655.58,163.93c.82-1.56,1.78-3.01,3.18-4.1,.8-.62,1.67-1.08,2.68-1.26,1.81-.32,3.36,.57,4.01,2.29,.61,1.63,.58,3.28,.11,4.93-.58,2.06-1.54,3.94-2.99,5.53-.83,.91-1.78,1.65-2.99,2.01-.82,.24-1.66,.3-2.49,.05-1.14-.35-1.87-1.14-2.26-2.25-.56-1.6-.5-3.22-.06-4.83,.22-.8,.53-1.57,.81-2.36Zm7.2,3.01c.63-1.28,1.16-2.59,1.45-3.99,.16-.77,.26-1.55,.05-2.33-.23-.86-1.05-1.4-1.93-1.26-.86,.14-1.51,.65-2.03,1.3-.55,.69-1.06,1.43-1.53,2.18-1.01,1.61-1.83,3.3-2.37,5.13-.29,.97-.51,1.95-.43,2.98,.05,.67,.29,1.24,.92,1.57,.73,.38,1.45,.24,2.09-.18,.43-.28,.82-.66,1.16-1.06,1.09-1.31,1.86-2.82,2.62-4.34Z"/><path d="M616.21,153.19l-.16,.34-5.46-2.6,.16-.34c.26,.07,.52,.16,.78,.22,.59,.12,.98-.11,1.12-.7,.1-.46,.15-.95,.18-1.42,.05-.69,.06-1.39,.11-2.08,.01-.18-.04-.28-.21-.36-1.65-.78-3.29-1.56-4.93-2.35-.18-.09-.29-.06-.44,.07-.68,.62-1.38,1.22-2.06,1.83-.19,.17-.35,.37-.5,.57-.31,.42-.28,.85,.12,1.2,.27,.25,.59,.45,.9,.68l-.16,.33-4.36-2.08,.17-.35c.1,.02,.2,.04,.3,.06,.61,.17,1.18,.1,1.7-.28,.39-.29,.8-.56,1.17-.88,3.46-3.04,6.92-6.1,10.38-9.14,.09-.08,.23-.14,.34-.13,.19,.02,.25,.15,.24,.36-.09,1.73-.17,3.46-.26,5.19-.14,2.9-.28,5.81-.41,8.71-.02,.43,0,.86,.04,1.29,.05,.74,.4,1.3,1.02,1.68,.05,.03,.1,.07,.14,.1,.02,.02,.04,.04,.08,.07Zm-2.87-14.48c-1.72,1.51-3.4,2.98-5.09,4.46l4.77,2.27c.11-2.24,.21-4.45,.32-6.74Z"/><path d="M678.26,165.76l-.18,.37c-.44-.12-.86-.25-1.3-.35-1.24-.29-2.43-.08-3.6,.35-1.66,.61-2.96,1.69-4.09,3.01-.02,.02-.02,.05-.01,.03,.62,.01,1.26-.02,1.89,.05,3.19,.4,4.07,3.25,3.35,5.42-.62,1.89-1.89,3.16-3.76,3.84-1.97,.71-4.7-.31-5.4-2.64-.64-2.1-.34-4.05,.72-5.91,1.74-3.06,4.47-4.65,7.9-5.1,1.57-.2,3.04,.21,4.48,.93Zm-6.66,10.04c.62-1.33,.93-2.51,.78-3.77-.12-1.04-.67-1.76-1.69-2.08-.7-.22-1.42-.1-2.13-.03-.06,0-.12,.06-.16,.11-.6,.94-1.22,1.88-1.54,2.96-.3,1.01-.47,2.04-.28,3.1,.18,.93,.65,1.62,1.61,1.86,.84,.21,1.57-.08,2.22-.59,.58-.46,.96-1.07,1.18-1.55Z"/><path d="M697.67,184.09c.03-.25,.15-.33,.35-.37,1.43-.32,2.86-.68,4.2-1.31,.52-.24,.99-.55,1.36-.99,.59-.71,.63-1.56,.1-2.2-.55-.66-1.6-.86-2.35-.43-.08,.04-.17,.08-.22,.14-.23,.27-.46,.22-.72,0,.47-.71,1.1-1.17,1.96-1.25,1.16-.12,2.56,.72,3.02,1.79,.43,1.02,.12,1.95-.89,2.64-1.02,.7-2.18,1.06-3.34,1.4-.43,.13-.86,.24-1.37,.37,.29,.14,.51,.25,.74,.35,.7,.31,1.39,.64,2.1,.92,.22,.08,.5,.05,.74-.01,.36-.09,.35-.12,.72,.11-.43,.39-.85,.79-1.28,1.17-.04,.04-.15,.04-.21,.02-1.64-.77-3.27-1.55-4.91-2.33Z"/><path d="M636.15,152.02l-.39,.81c-3.68-1.76-7.35-3.5-11.03-5.26l.39-.81,11.03,5.26Z"/><path d="M623.13,150.92l.38-.8,11.03,5.25-.38,.8-11.03-5.25Z"/><path d="M649.9,167.25c.64,.31,.9,1.05,.59,1.69-.3,.62-1.05,.88-1.67,.58-.63-.3-.89-1.07-.59-1.69,.31-.62,1.04-.87,1.67-.57Z"/></g><g><path d="M56.54,613.45c0,2.39-.05,4.79,.02,7.17,.04,1.15,.66,1.62,1.82,1.69,.31,.02,.62,0,.96,0,0,.21,.02,.36,.03,.55h-8.68v-.56c.4,0,.77,.02,1.15,0,.97-.07,1.58-.66,1.66-1.61,.06-.62,.07-1.24,.07-1.87,0-4.23,0-8.46,0-12.68,0-.52-.05-1.05-.11-1.57-.09-.8-.6-1.22-1.34-1.36-.46-.08-.94-.09-1.43-.14v-.47c.12-.01,.22-.03,.31-.03,2.8,.01,5.61,0,8.41,.05,1.52,.03,2.99,.3,4.31,1.16,3.52,2.29,2.96,7.24,.03,9.04-1.29,.79-2.72,1.02-4.2,.94-1.01-.05-2.02-.21-3.01-.32Zm-.07-.93c.47,.08,.88,.16,1.28,.21,1.2,.16,2.37,.16,3.36-.67,1.65-1.38,1.9-3.17,1.41-5.13-.38-1.52-1.3-2.59-2.86-3-.91-.24-1.81-.15-2.72,.02-.36,.07-.48,.2-.47,.57,.02,2.11,0,4.23,0,6.34,0,.54,0,1.08,0,1.65Z"/><path d="M112.46,630.22c-.02,2.45-.34,4.84-1.49,7.05-.74,1.42-1.76,2.55-3.25,3.22-1.88,.85-3.87,.49-5.31-1.01-1.69-1.75-2.55-3.91-2.9-6.28-.36-2.41-.27-4.81,.37-7.16,.59-2.17,1.57-4.1,3.53-5.38,1.77-1.16,3.79-1.07,5.43,.26,1.63,1.32,2.62,3.06,3.09,5.07,.32,1.38,.44,2.81,.65,4.21-.04,0-.08,.01-.13,.02Zm-2.9-.45c-.07-.83-.15-2.49-.35-4.13-.16-1.3-.5-2.58-1.26-3.69-.95-1.38-2.58-1.51-3.73-.29-.28,.29-.51,.65-.7,1-.57,1.07-.78,2.25-.94,3.44-.41,3.12-.53,6.24,.06,9.35,.23,1.24,.54,2.47,1.3,3.52,.83,1.15,2.12,1.34,3.28,.52,.75-.52,1.17-1.27,1.44-2.11,.7-2.22,.78-4.51,.9-7.63Z"/><path d="M206.74,611.65c.71,.61,1.45,1.22,2.18,1.86,.95,.84,1.74,1.8,2.12,3.02,.74,2.42-.21,4.79-2.47,5.96-2.07,1.07-4.22,1.09-6.29,.03-3.13-1.6-3.59-5.3-1.02-7.88,.6-.6,1.28-1.12,1.92-1.68,.12-.1,.24-.2,.39-.32-.53-.47-1.04-.91-1.53-1.37-.91-.85-1.7-1.77-2.06-3-.6-2.09,.3-4.34,2.31-5.39,2.05-1.06,4.19-1.08,6.22,.02,1.52,.83,2.47,2.12,2.29,3.97-.12,1.22-.76,2.19-1.69,2.95-.77,.63-1.58,1.21-2.37,1.82Zm-2.42,1.58c-1.87,1.51-2.69,3.56-2.38,5.87,.25,1.9,1.64,3.22,3.54,3.31,1.45,.07,2.68-.4,3.36-1.75,.65-1.3,.38-2.54-.5-3.66-1.14-1.45-2.58-2.59-4.01-3.76Zm1.67-2.09c.74-.85,1.5-1.56,2.07-2.4,.77-1.15,.86-2.47,.42-3.77-.58-1.71-2.79-2.48-4.62-1.65-1.1,.5-1.8,1.32-1.87,2.55-.06,.98,.32,1.86,.99,2.54,.92,.93,1.93,1.76,3.02,2.74Z"/><path d="M99.23,617.07v-1.75h51.51v1.75h-51.51Z"/><path d="M140.54,638.31c.12,0,.2,.02,.27,.02,1.97,0,3.94,0,5.9,0,1.33,0,2.54-.27,3.34-1.49,.08-.13,.35-.13,.65-.23-.5,1.36-.93,2.59-1.4,3.81-.04,.11-.31,.18-.47,.18-3.46,.01-6.92,0-10.38,0h-1.12c-.13-.37-.02-.6,.24-.84,2.28-2.1,4.51-4.25,6.44-6.68,1.2-1.51,2.24-3.12,2.67-5.03,.32-1.4,.3-2.78-.52-4.03-1.5-2.32-4.8-2.52-6.63-.39-.4,.46-.69,1.03-.97,1.58-.16,.32-.31,.48-.66,.33,.23-3.05,2.36-5.96,6.21-5.66,2.68,.21,4.77,1.96,5.22,4.36,.28,1.54-.11,2.99-.79,4.37-1.1,2.22-2.71,4.04-4.38,5.83-1.19,1.27-2.39,2.55-3.62,3.87Z"/><path d="M184.51,610.44c.53-1.08,1.04-2.13,1.55-3.17,.72-1.45,1.43-2.91,2.17-4.35,.08-.16,.32-.35,.49-.35,2.23-.02,4.46-.02,6.69-.01,.06,0,.12,.02,.26,.04-.37,.8-.7,1.57-1.09,2.32-.06,.12-.33,.17-.5,.17-1.74,.01-3.48,.02-5.21,0-.34,0-.53,.09-.67,.41-.34,.76-.72,1.5-1.11,2.3,.6,.14,1.17,.25,1.72,.41,2.21,.61,4.11,1.72,5.42,3.66,1.88,2.77,1.38,6.57-1.18,9.01-1.9,1.81-4.17,2.59-6.79,2.3-.73-.08-1.41-.32-1.94-.86-.5-.52-.62-1.14-.31-1.6,.33-.49,.98-.67,1.63-.42,.3,.12,.59,.29,.86,.47,1.74,1.17,3.36,1.23,4.9,.18,1.61-1.1,2.35-3,1.89-4.92-.59-2.47-2.26-3.95-4.52-4.86-1.2-.48-2.48-.6-3.75-.69-.14-.01-.28-.02-.48-.04Z"/><path d="M229.88,610.85c.5,.3,1.09,.58,1.58,.97,1.92,1.5,2.36,3.54,1.92,5.82-.56,2.85-2.86,4.95-5.89,5.44-1.3,.21-2.61,.29-3.91-.02-.41-.1-.81-.34-1.16-.59-.4-.29-.55-.73-.36-1.22,.17-.43,.69-.75,1.2-.68,.4,.05,.8,.18,1.17,.33,.66,.27,1.28,.69,1.97,.88,2.6,.71,5.04-1.31,4.9-4.01-.16-2.95-1.97-4.49-4.87-4.92-.24-.04-.49-.01-.73-.05-.11-.02-.21-.14-.31-.21,.09-.09,.16-.24,.26-.28,.46-.16,.95-.25,1.4-.45,1.63-.72,2.77-1.85,2.95-3.73,.14-1.45-.25-2.69-1.55-3.46-1.36-.79-2.76-.67-4.02,.24-.64,.46-1.14,1.1-1.75,1.7-.06-.03-.2-.1-.38-.19,.77-1.67,1.68-3.21,3.48-3.9,2.13-.81,5.11-.48,6.38,2.16,.68,1.42,.41,2.76-.44,3.99-.54,.77-1.21,1.45-1.83,2.18Z"/><path d="M122.96,609.91c2.03-6.13,4.04-12.18,6.04-18.21-.05-.04-.07-.07-.09-.07-2.05,0-4.1,0-6.15,.02-1.6,0-2.71,.83-3.54,2.13-.07,.11-.14,.22-.23,.36-.13-.05-.26-.09-.43-.16,.52-1.29,1.03-2.55,1.54-3.8q.4-1,1.49-1c3.05,0,6.1,0,9.15,0,.19,0,.39,0,.67,0-.04,.31-.03,.59-.11,.84-2.18,6.52-4.37,13.03-6.54,19.54-.09,.26-.2,.37-.48,.36-.41-.02-.82,0-1.32,0Z"/><path d="M130.29,619.91c0,.17,0,.34,0,.52,0,5.67,0,11.34,0,17.02,0,.46,.02,.92,.08,1.37,.08,.64,.39,.95,1.02,1.09,.24,.05,.48,.08,.73,.1,.23,.02,.45,.03,.7,.05v.52h-7.6v-.5c.49-.05,.97-.08,1.43-.16,.7-.13,1.07-.53,1.09-1.25,.04-2.67,.07-5.34,.07-8.01,0-2.24-.04-4.49-.06-6.73,0-.18-.01-.36-.05-.54-.18-.94-.71-1.27-1.63-1.02-.31,.09-.62,.21-.98,.34-.07-.12-.14-.25-.21-.37,.97-.72,4.92-2.5,5.42-2.42Z"/><path d="M89.26,609.68v1.16h-16.12v-1.16h16.12Z"/><path d="M160.72,610.84v-1.17h16.12v1.17h-16.12Z"/><path d="M89.26,614.56v1.17h-16.1v-1.17h16.1Z"/><path d="M160.72,615.74v-1.19h16.1v1.19h-16.1Z"/><path d="M216.87,623.29c-.92-.01-1.64-.76-1.63-1.67,.01-.91,.75-1.63,1.68-1.63,.94,0,1.68,.76,1.65,1.7-.02,.91-.77,1.62-1.7,1.6Z"/><path d="M117.37,641.01c-.91-.01-1.64-.76-1.63-1.67,.02-.92,.75-1.63,1.67-1.63,.94,0,1.68,.76,1.65,1.7-.02,.91-.77,1.62-1.7,1.6Z"/></g><g><path d="M707.95,1035.67c0,2.39-.05,4.79,.02,7.17,.04,1.15,.66,1.62,1.82,1.69,.31,.02,.62,0,.96,0,0,.21,.02,.36,.03,.55h-8.68v-.56c.4,0,.77,.02,1.15,0,.97-.07,1.58-.66,1.66-1.61,.06-.62,.07-1.24,.07-1.87,0-4.23,0-8.46,0-12.68,0-.52-.05-1.05-.11-1.57-.09-.8-.6-1.22-1.34-1.36-.46-.08-.94-.09-1.43-.14v-.47c.12-.01,.22-.03,.31-.03,2.8,.01,5.61,0,8.41,.05,1.52,.03,2.99,.3,4.31,1.16,3.52,2.29,2.96,7.24,.03,9.04-1.29,.79-2.72,1.02-4.2,.94-1.01-.05-2.02-.21-3.01-.32Zm-.07-.93c.47,.08,.88,.16,1.28,.21,1.2,.16,2.37,.16,3.36-.67,1.65-1.38,1.9-3.17,1.41-5.13-.38-1.52-1.3-2.59-2.86-3-.91-.24-1.81-.15-2.72,.02-.36,.07-.48,.2-.47,.57,.02,2.11,0,4.23,0,6.34,0,.54,0,1.08,0,1.65Z"/><path d="M763.87,1052.44c-.02,2.45-.34,4.84-1.49,7.05-.74,1.42-1.76,2.55-3.25,3.22-1.88,.85-3.87,.49-5.31-1.01-1.69-1.75-2.55-3.91-2.9-6.28-.36-2.41-.27-4.81,.37-7.16,.59-2.17,1.57-4.1,3.53-5.38,1.77-1.16,3.79-1.07,5.43,.26,1.63,1.32,2.62,3.06,3.09,5.07,.32,1.38,.44,2.81,.65,4.21-.04,0-.08,.01-.13,.02Zm-2.9-.45c-.07-.83-.15-2.49-.35-4.13-.16-1.3-.5-2.58-1.26-3.69-.95-1.38-2.58-1.51-3.73-.29-.28,.29-.51,.65-.7,1-.57,1.07-.78,2.25-.94,3.44-.41,3.12-.53,6.24,.06,9.35,.23,1.24,.54,2.47,1.3,3.52,.83,1.15,2.12,1.34,3.28,.52,.75-.52,1.17-1.27,1.44-2.11,.7-2.22,.78-4.51,.9-7.63Z"/><path d="M858.14,1033.87c.71,.61,1.45,1.22,2.18,1.86,.95,.84,1.74,1.8,2.12,3.02,.74,2.42-.21,4.79-2.47,5.96-2.07,1.07-4.22,1.09-6.29,.03-3.13-1.6-3.59-5.3-1.02-7.88,.6-.6,1.28-1.12,1.92-1.68,.12-.1,.24-.2,.39-.32-.53-.47-1.04-.91-1.53-1.37-.91-.85-1.7-1.77-2.06-3-.6-2.09,.3-4.34,2.31-5.39,2.05-1.06,4.19-1.08,6.22,.02,1.52,.83,2.47,2.12,2.29,3.97-.12,1.22-.76,2.19-1.69,2.95-.77,.63-1.58,1.21-2.37,1.82Zm-2.42,1.58c-1.87,1.51-2.69,3.56-2.38,5.87,.25,1.9,1.64,3.22,3.54,3.31,1.45,.07,2.68-.4,3.36-1.75,.65-1.3,.38-2.54-.5-3.66-1.14-1.45-2.58-2.59-4.01-3.76Zm1.67-2.09c.74-.85,1.5-1.56,2.07-2.4,.77-1.15,.86-2.47,.42-3.77-.58-1.71-2.79-2.48-4.62-1.65-1.1,.5-1.8,1.32-1.87,2.55-.06,.98,.32,1.86,.99,2.54,.92,.93,1.93,1.76,3.02,2.74Z"/><path d="M750.64,1039.29v-1.75h51.51v1.75h-51.51Z"/><path d="M791.94,1060.54c.12,0,.2,.02,.27,.02,1.97,0,3.94,0,5.9,0,1.33,0,2.54-.27,3.34-1.49,.08-.13,.35-.13,.65-.23-.5,1.36-.93,2.59-1.4,3.81-.04,.11-.31,.18-.47,.18-3.46,.01-6.92,0-10.38,0h-1.12c-.13-.37-.02-.6,.24-.84,2.28-2.1,4.51-4.25,6.44-6.68,1.2-1.51,2.24-3.12,2.67-5.03,.32-1.4,.3-2.78-.52-4.03-1.5-2.32-4.8-2.52-6.63-.39-.4,.46-.69,1.03-.97,1.58-.16,.32-.31,.48-.66,.33,.23-3.05,2.36-5.96,6.21-5.66,2.68,.21,4.77,1.96,5.22,4.36,.28,1.54-.11,2.99-.79,4.37-1.1,2.22-2.71,4.04-4.38,5.83-1.19,1.27-2.39,2.55-3.62,3.87Z"/><path d="M835.92,1032.67c.53-1.08,1.04-2.13,1.55-3.17,.72-1.45,1.43-2.91,2.17-4.35,.08-.16,.32-.35,.49-.35,2.23-.02,4.46-.02,6.69-.01,.06,0,.12,.02,.26,.04-.37,.8-.7,1.57-1.09,2.32-.06,.12-.33,.17-.5,.17-1.74,.01-3.48,.02-5.21,0-.34,0-.53,.09-.67,.41-.34,.76-.72,1.5-1.11,2.3,.6,.14,1.17,.25,1.72,.41,2.21,.61,4.11,1.72,5.42,3.66,1.88,2.77,1.38,6.57-1.18,9.01-1.9,1.81-4.17,2.59-6.79,2.3-.73-.08-1.41-.32-1.94-.86-.5-.52-.62-1.14-.31-1.6,.33-.49,.98-.67,1.63-.42,.3,.12,.59,.29,.86,.47,1.74,1.17,3.36,1.23,4.9,.18,1.61-1.1,2.35-3,1.89-4.92-.59-2.47-2.26-3.95-4.52-4.86-1.2-.48-2.48-.6-3.75-.69-.14-.01-.28-.02-.48-.04Z"/><path d="M881.29,1033.08c.5,.3,1.09,.58,1.58,.97,1.92,1.5,2.36,3.54,1.92,5.82-.56,2.85-2.86,4.95-5.89,5.44-1.3,.21-2.61,.29-3.91-.02-.41-.1-.81-.34-1.16-.59-.4-.29-.55-.73-.36-1.22,.17-.43,.69-.75,1.2-.68,.4,.05,.8,.18,1.17,.33,.66,.27,1.28,.69,1.97,.88,2.6,.71,5.04-1.31,4.9-4.01-.16-2.95-1.97-4.49-4.87-4.92-.24-.04-.49-.01-.73-.05-.11-.02-.21-.14-.31-.21,.09-.09,.16-.24,.26-.28,.46-.16,.95-.25,1.4-.45,1.63-.72,2.77-1.85,2.95-3.73,.14-1.45-.25-2.69-1.55-3.46-1.36-.79-2.76-.67-4.02,.24-.64,.46-1.14,1.1-1.75,1.7-.06-.03-.2-.1-.38-.19,.77-1.67,1.68-3.21,3.48-3.9,2.13-.81,5.11-.48,6.38,2.16,.68,1.42,.41,2.76-.44,3.99-.54,.77-1.21,1.45-1.83,2.18Z"/><path d="M774.37,1032.13c2.03-6.13,4.04-12.18,6.04-18.21-.05-.04-.07-.07-.09-.07-2.05,0-4.1,0-6.15,.02-1.6,0-2.71,.83-3.54,2.13-.07,.11-.14,.22-.23,.36-.13-.05-.26-.09-.43-.16,.52-1.29,1.03-2.55,1.54-3.8q.4-1,1.49-1c3.05,0,6.1,0,9.15,0,.19,0,.39,0,.67,0-.04,.31-.03,.59-.11,.84-2.18,6.52-4.37,13.03-6.54,19.54-.09,.26-.2,.37-.48,.36-.41-.02-.82,0-1.32,0Z"/><path d="M781.69,1042.13c0,.17,0,.34,0,.52,0,5.67,0,11.34,0,17.02,0,.46,.02,.92,.08,1.37,.08,.64,.39,.95,1.02,1.09,.24,.05,.48,.08,.73,.1,.23,.02,.45,.03,.7,.05v.52h-7.6v-.5c.49-.05,.97-.08,1.43-.16,.7-.13,1.07-.53,1.09-1.25,.04-2.67,.07-5.34,.07-8.01,0-2.24-.04-4.49-.06-6.73,0-.18-.01-.36-.05-.54-.18-.94-.71-1.27-1.63-1.02-.31,.09-.62,.21-.98,.34-.07-.12-.14-.25-.21-.37,.97-.72,4.92-2.5,5.42-2.42Z"/><path d="M740.66,1031.9v1.16h-16.12v-1.16h16.12Z"/><path d="M812.13,1033.07v-1.17h16.12v1.17h-16.12Z"/><path d="M740.66,1036.78v1.17h-16.1v-1.17h16.1Z"/><path d="M812.13,1037.96v-1.19h16.1v1.19h-16.1Z"/><path d="M868.27,1045.51c-.92-.01-1.64-.76-1.63-1.67,.01-.91,.75-1.63,1.68-1.63,.94,0,1.68,.76,1.65,1.7-.02,.91-.77,1.62-1.7,1.6Z"/><path d="M768.77,1063.23c-.91-.01-1.64-.76-1.63-1.67,.02-.92,.75-1.63,1.67-1.63,.94,0,1.68,.76,1.65,1.7-.02,.91-.77,1.62-1.7,1.6Z"/></g><g><path d="M702.11,603.06v-.49c.14-.01,.28-.03,.42-.03,2.68,0,5.35-.02,8.03,.03,1.52,.03,3.03,.23,4.38,1.04,2.16,1.3,3.11,3.51,2.56,5.99-.5,2.25-2.39,3.86-4.8,4.14-1.59,.19-3.13-.01-4.71-.32-.03,.11-.07,.21-.07,.3,0,2.1-.03,4.2,.03,6.3,.05,1.91,.57,2.37,2.49,2.39,.11,0,.22,0,.37,.02,.01,.15,.03,.3,.05,.5h-8.72v-.46c.06-.02,.1-.04,.15-.05,.25,0,.51,0,.76-.02,1.21-.08,1.79-.63,1.91-1.85,.05-.49,.07-.97,.07-1.46,0-4.27,0-8.54,0-12.82,0-.51-.03-1.01-.09-1.52-.12-1.02-.55-1.47-1.57-1.63-.39-.06-.79-.05-1.25-.08Zm5.79,5.22c0,1.27,.01,2.54,0,3.8,0,.37,.12,.52,.48,.55,.52,.05,1.04,.15,1.56,.19,.99,.08,1.9-.15,2.68-.8,1.55-1.29,1.82-2.98,1.45-4.82-.28-1.42-1.01-2.55-2.41-3.12-1.14-.47-2.31-.38-3.46-.09-.13,.03-.27,.31-.27,.48-.02,1.27-.01,2.53-.01,3.8Z"/><path d="M764.24,630.6c-.13,2.36-.47,4.65-1.58,6.77-.74,1.42-1.77,2.54-3.26,3.21-1.9,.86-3.92,.47-5.36-1.05-1.61-1.7-2.48-3.76-2.84-6.05-.45-2.92-.32-5.81,.71-8.61,.53-1.44,1.32-2.73,2.51-3.74,2.15-1.82,4.66-1.73,6.66,.26,1.68,1.68,2.53,3.76,2.86,6.07,.15,1.04,.19,2.09,.28,3.13Zm-2.88-.22c-.19-1.9-.31-3.6-.55-5.28-.16-1.14-.52-2.26-1.21-3.22-.91-1.25-2.44-1.4-3.57-.34-.87,.82-1.26,1.89-1.49,3.02-.69,3.45-.85,6.94-.3,10.42,.19,1.22,.55,2.45,1.07,3.56,.97,2.04,3.23,2.12,4.42,.2,.39-.63,.73-1.36,.84-2.09,.34-2.14,.55-4.3,.79-6.26Z"/><path d="M852.49,623.38v-.53c2.43-.09,4.45-1.03,6.01-2.89,1.44-1.71,2.49-3.61,3.02-5.84-.76,.36-1.45,.76-2.19,1.02-3.4,1.18-6.4-.54-7.09-4.09-.53-2.73,.12-5.19,2.08-7.2,2.46-2.52,6.33-2.26,8.53,.48,1.57,1.96,2.22,4.22,2.07,6.68-.34,5.47-3.14,9.3-8,11.67-1.37,.67-2.87,.79-4.43,.7Zm9.62-13.41c-.02-1.43-.29-2.81-.8-4.14-.41-1.05-1.01-1.97-2.07-2.48-1.47-.71-3.37,.12-3.99,1.85-.9,2.49-.67,4.95,.59,7.28,.49,.91,1.26,1.55,2.35,1.64,1.31,.12,2.44-.4,3.47-1.14,.1-.07,.15-.24,.16-.37,.1-.88,.19-1.76,.28-2.64Z"/><path d="M750.89,617.06v-1.77h51.93v1.77h-51.93Z"/><path d="M903.15,602.12c.12,.37,.06,.57-.32,.61-4.12,.45-6.45,3.08-7.99,6.63-.29,.66-.47,1.35-.74,2.15,.56-.3,.99-.54,1.44-.75,.98-.47,2.01-.74,3.09-.67,2.35,.15,3.82,1.51,4.61,3.63,1.04,2.79-.02,6.37-2.3,8.29-1.9,1.6-5.73,2.23-8.15-.9-1.58-2.04-2.21-4.32-2.03-6.85,.34-4.9,2.82-8.46,6.94-10.92,1.65-.98,3.51-1.3,5.45-1.22Zm-9.58,13.32c.04,2.17,.39,4.06,1.57,5.69,1.22,1.69,3.11,1.83,4.54,.36,.93-.95,1.19-2.15,1.23-3.43,.06-1.81-.24-3.53-1.19-5.1-.55-.89-1.32-1.47-2.41-1.55-1.3-.1-2.32,.57-3.35,1.2-.09,.06-.12,.25-.14,.38-.1,.88-.18,1.76-.25,2.45Z"/><path d="M800.03,640.68h-2.48v-5.37h-8.63c-.04-1.03-.1-1.92,.55-2.82,2.9-4.04,5.73-8.13,8.57-12.21,.23-.34,.48-.49,.89-.45,.34,.04,.68,0,1.08,0v13.33h2.71v2.11h-2.68v5.41Zm-2.53-17.62c-2.41,3.41-4.74,6.71-7.12,10.08h7.12v-10.08Z"/><path d="M836.74,607.84c.24-2.64,1.8-5.05,4.49-5.6,2.74-.56,5.5,.71,6.6,3.1,.85,1.84,.5,3.65-.32,5.39-.96,2.08-2.41,3.81-3.96,5.47-1.32,1.41-2.65,2.82-3.98,4.22-.06,.06-.11,.13-.23,.27,.6,0,1.1,0,1.6,0,1.59,0,3.18,0,4.78-.01,1.26,0,2.4-.29,3.16-1.44,.1-.15,.38-.17,.72-.3-.5,1.38-.93,2.6-1.4,3.81-.05,.12-.35,.21-.53,.21-3.06,.01-6.11,0-9.17,0h-2.56c.2-.35,.29-.64,.47-.83,2.1-2.19,4.27-4.32,6.31-6.56,1.36-1.49,2.39-3.23,2.84-5.24,.39-1.77,.23-3.45-1.15-4.78-1.89-1.82-5-1.37-6.48,.9-.22,.33-.4,.69-.55,1.06-.12,.32-.29,.43-.65,.32Z"/><path d="M774.26,625.53c.43-2.49,1.4-4.56,3.99-5.41,3.23-1.06,6.78,.8,7.5,3.94,.37,1.59-.03,3.09-.72,4.52-1,2.06-2.44,3.79-3.99,5.45-1.34,1.44-2.68,2.88-4.07,4.36,.1,.01,.16,.03,.22,.03,2.06,0,4.13,0,6.19-.01,1.23,0,2.32-.32,3.06-1.42,.1-.15,.37-.18,.56-.27,.03,.04,.06,.07,.1,.11-.44,1.23-.88,2.46-1.34,3.69-.03,.09-.23,.17-.34,.17-3.87,0-7.74,0-11.62,0-.03,0-.07-.02-.25-.09,.16-.27,.26-.58,.46-.76,2.25-2.1,4.46-4.23,6.39-6.64,1.38-1.73,2.52-3.58,2.86-5.82,.34-2.28-.85-4.4-2.84-5.03-2.13-.67-4.42,.5-5.4,2.77-.13,.3-.21,.65-.74,.43Z"/><path d="M774.82,609.92c2.04-6.16,4.06-12.23,6.08-18.34-.12-.02-.2-.05-.28-.05-1.94,0-3.87,.03-5.81,0-1.69-.02-2.89,.77-3.74,2.18-.17,.28-.31,.44-.63,.11,.61-1.51,1.22-3.04,1.85-4.56,.04-.1,.21-.2,.32-.2,3.54-.01,7.09,0,10.71,0-.04,.3-.02,.57-.1,.82-2.19,6.56-4.39,13.11-6.58,19.67-.1,.3-.24,.4-.54,.38-.4-.03-.79,0-1.28,0Z"/><path d="M885.59,622.44v.51h-7.59c-.01-.16-.02-.31-.03-.48,.46-.05,.89-.08,1.32-.14,.78-.11,1.16-.5,1.23-1.27,.04-.5,.07-1.01,.07-1.52,0-3.95,0-7.9,0-11.85,0-.6-.04-1.2-.09-1.79-.1-1.15-.72-1.56-1.82-1.21-.27,.09-.54,.19-.84,.3-.07-.14-.13-.26-.18-.36,.11-.29,5.01-2.5,5.42-2.44,0,.22,0,.46,0,.69,0,5.8,0,11.59,.02,17.39,0,1.73,.34,2.04,2.05,2.16,.14,0,.28,.02,.45,.03Z"/><path d="M812.86,610.87v-1.15h16.2v1.15h-16.2Z"/><path d="M829.07,614.63v1.14h-16.19v-1.14h16.19Z"/><path d="M724.68,609.71h16.16v1.16h-16.16v-1.16Z"/><path d="M724.67,615.78v-1.15h16.18v1.15h-16.18Z"/><path d="M770.81,639.43c0,.9-.73,1.66-1.63,1.68-.93,.02-1.7-.73-1.72-1.66-.01-.9,.73-1.67,1.63-1.68,.93-.02,1.71,.73,1.71,1.66Z"/><path d="M870.15,623.4c-.92,.01-1.7-.75-1.7-1.67,0-.9,.75-1.66,1.65-1.67,.94,0,1.69,.74,1.69,1.67,0,.9-.74,1.66-1.64,1.67Z"/></g><g><path d="M59.42,1044.62c.01,.2,.02,.34,.03,.52h-8.7c-.14-.41,0-.56,.42-.53,.21,.02,.42,0,.63-.02,1-.07,1.64-.65,1.75-1.65,.06-.53,.06-1.07,.06-1.61,0-4.32,0-8.63,0-12.95,0-.52-.01-1.04-.09-1.55-.13-.92-.63-1.38-1.55-1.49-.4-.05-.8-.07-1.21-.1-.12-.3-.11-.51,.31-.5,3.2,.05,6.4,.04,9.6,.17,1.83,.08,3.42,.86,4.55,2.36,2.39,3.19,.57,7.85-3.36,8.54-.86,.15-1.75,.17-2.63,.15-.88-.03-1.75-.19-2.65-.3-.02,.06-.06,.15-.06,.23,0,2.13-.02,4.26,.04,6.38,.05,1.85,.57,2.3,2.44,2.32,.11,0,.23,0,.42,0Zm-2.9-14.12c0,1.26,0,2.53,.01,3.79,0,.17,.12,.47,.23,.49,1.07,.21,2.15,.44,3.24,.12,1.67-.48,2.75-2.06,2.82-4.1,.1-2.88-1.73-4.9-4.4-4.83-.49,.01-.98,.15-1.48,.19-.36,.03-.42,.22-.42,.54,.01,1.26,0,2.53,0,3.79Z"/><path d="M112.95,1052.83c-.15,2.33-.48,4.58-1.57,6.68-.79,1.53-1.91,2.71-3.52,3.4-1.95,.84-4.14,.18-5.65-1.73-1.43-1.81-2.18-3.91-2.42-6.18-.3-2.73-.15-5.44,.87-8.03,.57-1.45,1.38-2.72,2.6-3.72,2-1.63,4.48-1.56,6.35,.22,1.73,1.64,2.63,3.7,3,6.01,.17,1.11,.23,2.24,.34,3.37Zm-2.91,.15c-.17-1.87-.28-3.74-.52-5.6-.16-1.19-.52-2.36-1.28-3.35-.97-1.26-2.54-1.33-3.64-.18-.78,.82-1.17,1.84-1.38,2.92-.7,3.66-.89,7.35-.2,11.03,.21,1.11,.61,2.23,1.13,3.23,.77,1.47,2.29,1.68,3.6,.66,.7-.54,1.07-1.29,1.32-2.11,.66-2.15,.75-4.37,.95-6.61Z"/><path d="M136.09,1052.81c-.14,2.35-.48,4.62-1.58,6.73-.8,1.53-1.92,2.7-3.54,3.38-1.96,.82-4.14,.15-5.64-1.77-1.42-1.82-2.17-3.92-2.41-6.19-.29-2.69-.14-5.36,.85-7.93,.57-1.47,1.38-2.77,2.62-3.78,2-1.64,4.48-1.58,6.35,.19,1.74,1.65,2.66,3.73,3.02,6.06,.17,1.09,.22,2.21,.33,3.31Zm-2.91,.15c-.17-1.85-.28-3.7-.52-5.54-.15-1.2-.51-2.36-1.26-3.36-.98-1.29-2.56-1.38-3.67-.2-.68,.72-1.07,1.59-1.27,2.54-.82,3.8-.98,7.64-.27,11.47,.2,1.09,.6,2.19,1.13,3.17,.77,1.44,2.26,1.65,3.56,.67,.71-.53,1.09-1.28,1.34-2.09,.67-2.17,.76-4.41,.96-6.66Z"/><path d="M99.56,1039.3v-1.76h51.87v1.76h-51.87Z"/><path d="M141.88,1051.25c1.11-.39,2.14-.91,3.23-1.11,2.68-.5,4.95,.91,5.86,3.48,.99,2.81,.01,6.34-2.26,8.28-2.04,1.74-5.79,2.14-8.14-.8-1.84-2.29-2.4-4.9-2.01-7.73,.66-4.83,3.29-8.28,7.6-10.47,1.31-.67,3.22-.94,4.76-.83,.01,.15,.03,.31,.04,.49-5.3,.6-7.69,4.14-9.08,8.67Zm6.78,6.57c-.02-1.85-.32-3.38-1.12-4.78-.57-.99-1.38-1.63-2.56-1.7-1.27-.08-2.27,.57-3.28,1.2-.09,.06-.14,.22-.15,.34-.08,1.18-.25,2.37-.2,3.55,.08,1.8,.56,3.53,1.77,4.94,1.16,1.36,2.91,1.4,4.19,.15,1.12-1.09,1.32-2.5,1.35-3.7Z"/><path d="M224.75,1024.5c-.13,.14-.25,.38-.4,.4-4.5,.55-6.88,3.48-8.35,7.43-.16,.42-.27,.86-.38,1.23,.97-.38,1.9-.85,2.89-1.1,2.78-.69,5.4,.81,6.21,3.57,.91,3.12,.13,5.85-2.23,8.07-1.95,1.83-5.84,2.29-8.25-.78-1.87-2.38-2.37-5.07-1.93-7.97,.66-4.37,3.07-7.57,6.81-9.79,1.67-.99,3.54-1.31,5.47-1.22,.05,.06,.11,.11,.16,.17Zm-2.36,15.56c-.02-1.75-.29-3.2-1.01-4.55-.57-1.08-1.4-1.81-2.68-1.89-1.27-.08-2.27,.58-3.28,1.2-.09,.06-.14,.23-.15,.35-.08,1.11-.26,2.22-.21,3.32,.09,1.9,.53,3.72,1.83,5.21,1.12,1.28,2.81,1.34,4.07,.17,1.19-1.1,1.41-2.53,1.43-3.81Z"/><path d="M263.21,1024.34v.51c-5.28,.62-7.67,4.15-9.06,8.73,.98-.39,1.89-.85,2.86-1.1,2.83-.73,5.48,.78,6.28,3.6,.89,3.12,.1,5.85-2.28,8.06-1.94,1.8-5.8,2.25-8.21-.81-1.87-2.38-2.37-5.07-1.93-7.97,.66-4.39,3.09-7.61,6.86-9.82,1.65-.97,3.51-1.29,5.48-1.19Zm-2.26,15.69c-.02-1.71-.29-3.15-.99-4.48-.57-1.08-1.37-1.83-2.66-1.93-1.29-.1-2.31,.57-3.34,1.2-.08,.05-.12,.2-.13,.3-.08,1.18-.27,2.37-.2,3.55,.11,1.84,.56,3.6,1.83,5.03,1.11,1.25,2.79,1.32,4.03,.19,1.21-1.11,1.44-2.56,1.46-3.87Z"/><path d="M123.46,1032.14c2.04-6.15,4.06-12.24,6.09-18.37-.15-.02-.26-.04-.37-.04-1.8,0-3.61,.04-5.41,0-1.82-.04-3.18,.69-4.12,2.24-.08,.13-.31,.18-.47,.26-.04-.06-.08-.11-.12-.17,.61-1.51,1.22-3.02,1.84-4.52,.05-.12,.25-.24,.39-.24,3.53-.01,7.06-.01,10.69-.01-.04,.3-.03,.56-.11,.79-2.19,6.55-4.39,13.09-6.58,19.63-.11,.33-.27,.46-.61,.43-.38-.03-.76,0-1.22,0Z"/><path d="M190.2,1024.18c0,.46,0,.71,0,.96,0,5.7,.02,11.4,.02,17.09,0,.02,0,.04,0,.06,.03,1.93,.23,2.16,2.17,2.31,.4,.03,.44,.2,.35,.54h-7.57q-.12-.51,.36-.54c1.88-.12,2.18-.42,2.18-2.3,0-4.24,0-8.48,0-12.72,0-.52-.05-1.03-.1-1.55-.11-1.09-.69-1.48-1.74-1.17-.29,.09-.57,.2-.89,.32-.07-.13-.14-.26-.25-.45,1.8-.83,3.5-1.8,5.46-2.56Z"/><path d="M207.04,1044.63v.52h-7.61c-.12-.37-.03-.53,.38-.55,1.91-.12,2.19-.39,2.2-2.27,.01-4.37,0-8.74-.01-13.11,0-.44-.04-.88-.1-1.32-.12-.92-.69-1.29-1.59-1.06-.33,.09-.65,.22-1.01,.34-.25-.22-.32-.41,.08-.61,1.47-.7,2.93-1.42,4.4-2.12,.19-.09,.43-.1,.73-.17,0,1.04,0,1.99,0,2.94,0,5.14,0,10.27,.03,15.41,0,1.53,.42,1.9,1.96,1.97,.17,0,.34,.02,.55,.03Z"/><path d="M245.61,1044.63v.52h-7.61c-.11-.37-.04-.53,.37-.55,1.92-.12,2.2-.39,2.2-2.27,.01-4.37,0-8.74-.01-13.11,0-.44-.04-.88-.1-1.32-.12-.92-.68-1.3-1.58-1.06-.35,.09-.68,.22-1.02,.34-.25-.26-.27-.43,.09-.6,1.47-.7,2.93-1.42,4.4-2.12,.19-.09,.43-.1,.74-.17,0,1.04,0,1.99,0,2.94,0,5.14,0,10.27,.03,15.41,0,1.53,.42,1.9,1.96,1.97,.17,0,.34,.02,.55,.03Z"/><path d="M177.67,1033.08h-16.17v-1.17h16.17v1.17Z"/><path d="M89.5,1036.82v1.17h-16.17v-1.17h16.17Z"/><path d="M161.48,1037.99v-1.18h16.19v1.18h-16.19Z"/><path d="M73.3,1033.07v-1.14h16.19v1.14h-16.19Z"/><path d="M230.11,1042.28c.95,0,1.69,.72,1.69,1.65,0,.91-.77,1.68-1.69,1.68-.92,0-1.65-.76-1.65-1.7,0-.92,.71-1.62,1.64-1.63Z"/><path d="M117.86,1060.01c.92,0,1.63,.72,1.63,1.64,0,.93-.75,1.69-1.66,1.69-.92,0-1.67-.76-1.66-1.69,0-.95,.72-1.65,1.69-1.64Z"/></g></svg>